<svg height="512" viewBox="0 0 64 64" width="512" xmlns="http://www.w3.org/2000/svg"><g id="hand-Trophy-award-winner-cup"><path d="m62 46v-29.5a4.5 4.5 0 0 0 -9 0v9.26a4.5 4.5 0 0 0 -7 3.74v6.37l-2.96 10.87a1 1 0 0 0 -.03.42l.81 4.84h-.82a1 1 0 0 0 -1 1v8a1 1 0 0 0 1 1h18a1 1 0 0 0 1-1v-8a1 1 0 0 0 -1-1h-1.48l2.4-5.61a1.006 1.006 0 0 0 .08-.39zm-2 8v6h-16v-6zm0-8.21-2.66 6.21h-11.49l-.83-4.95 2.94-10.79a.746.746 0 0 0 .04-.26v-6.5a2.5 2.5 0 0 1 5 0v9.5h2v-22.5a2.5 2.5 0 0 1 5 0z"/><path d="m21 52h-.82l.806-4.836a.993.993 0 0 0 -.021-.427l-2.965-10.871v-6.366a4.5 4.5 0 0 0 -7-3.738v-9.262a4.5 4.5 0 0 0 -9 0v29.5a.985.985 0 0 0 .081.394l2.403 5.606h-1.484a1 1 0 0 0 -1 1v8a1 1 0 0 0 1 1h18a1 1 0 0 0 1-1v-8a1 1 0 0 0 -1-1zm-17-6.2v-29.3a2.5 2.5 0 0 1 5 0v22.5h2v-9.5a2.5 2.5 0 0 1 5 0v6.5a1.01 1.01 0 0 0 .035.263l2.943 10.789-.825 4.948h-11.494zm16 14.2h-16v-6h16z"/><path d="m35.062 18.885a1 1 0 0 0 1.45-1.054l-.584-3.409 2.472-2.414a1 1 0 0 0 -.553-1.7l-3.424-.5-1.523-3.108a1.041 1.041 0 0 0 -1.794 0l-1.53 3.1-3.424.5a1 1 0 0 0 -.553 1.7l2.476 2.414-.584 3.409a1 1 0 0 0 1.45 1.054l3.059-1.602zm-5.262-2.713.332-1.93a1 1 0 0 0 -.288-.885l-1.4-1.367 1.939-.282a1 1 0 0 0 .753-.547l.864-1.761.866 1.756a1 1 0 0 0 .753.547l1.939.282-1.4 1.367a1 1 0 0 0 -.288.885l.332 1.93-1.734-.911a1 1 0 0 0 -.93 0z"/><path d="m10 5h2v2h-2z"/><path d="m8 7h2v2h-2z"/><path d="m10 9h2v2h-2z"/><path d="m12 7h2v2h-2z"/><path d="m52 5h2v2h-2z"/><path d="m50 7h2v2h-2z"/><path d="m52 9h2v2h-2z"/><path d="m54 7h2v2h-2z"/><path d="m42.82 15.94a5.994 5.994 0 0 0 .18-11.85v-1.09a1 1 0 0 0 -1-1h-20a1 1 0 0 0 -1 1v1.09a5.994 5.994 0 0 0 .18 11.85 11.007 11.007 0 0 0 7.82 8.63v7.43h-3a3.009 3.009 0 0 0 -3 3v1h-1a1 1 0 0 0 -1 1v4a1 1 0 0 0 1 1h20a1 1 0 0 0 1-1v-4a1 1 0 0 0 -1-1h-1v-1a3.009 3.009 0 0 0 -3-3h-3v-7.43a11.007 11.007 0 0 0 7.82-8.63zm.18-9.8a3.983 3.983 0 0 1 0 7.72zm-22 7.72a3.983 3.983 0 0 1 0-7.72zm20 24.14v2h-18v-2zm-3-4a1 1 0 0 1 1 1v1h-14v-1a1 1 0 0 1 1-1zm-7-2v-7.05c.33.03.66.05 1 .05s.67-.02 1-.05v7.05zm1-9a9.014 9.014 0 0 1 -9-9v-10h18v10a9.014 9.014 0 0 1 -9 9z"/></g></svg>